<svg width="420" height="285" viewBox="0 0 420 285" fill="none" xmlns="http://www.w3.org/2000/svg">
<path d="M419.989 37.1305C419.85 35.4666 418.391 34.2372 416.729 34.3456C401.406 35.5528 386.037 38.0082 370.692 41.4654L387.287 25.0476C388.476 23.8805 388.475 21.9559 387.303 20.7721C386.131 19.5884 384.199 19.5896 383.01 20.7567L359.275 44.2078C349.445 46.7548 339.635 49.7058 329.865 52.9991L350.721 12.967C351.496 11.4876 350.9 9.66529 349.415 8.89317C347.907 8.08172 346.1 8.71448 345.325 10.1939L321.529 55.9226C311.031 59.68 300.585 63.8497 290.249 68.348L314.067 16.3887C314.758 14.853 314.083 13.0755 312.581 12.3651C311.039 11.677 309.254 12.349 308.541 13.8455L281.871 72.0234C273.531 75.8081 265.232 79.8033 257.053 83.9643L284.613 4.00182C285.149 2.42363 284.348 0.744139 282.71 0.162431C281.125 -0.371461 279.399 0.449365 278.855 2.05839L249.236 88.0252C240.155 92.8014 231.186 97.7742 222.369 102.921L249.281 20.3596C249.786 18.7729 248.932 17.0456 247.338 16.5426C245.745 16.0395 244.011 16.891 243.506 18.4777L214.483 107.594C205.219 113.149 196.116 118.848 187.222 124.638L209.132 32.2118C209.513 30.5912 208.54 28.9309 206.873 28.5735C205.246 28.1938 203.602 29.2027 203.22 30.8233L179.805 129.538C170.084 136.03 160.601 142.62 151.414 149.225L165.855 47.1875C166.081 45.5244 164.941 43.9844 163.271 43.7589C161.602 43.5334 160.055 44.6688 159.829 46.3319L144.581 154.186C136.017 160.464 127.727 166.718 119.741 172.955L128.398 75.9344C128.563 74.2544 127.335 72.7899 125.64 72.6569C123.984 72.5016 122.474 73.7464 122.349 75.4041L113.183 178.125C105.513 184.183 98.1557 190.195 91.1058 196.059L95.3457 102.969C95.4087 101.294 94.1332 99.883 92.4518 99.8202C90.7704 99.7574 89.3533 101.028 89.2903 102.702L84.8092 201.366C73.8221 210.629 63.74 219.51 54.6396 227.731L62.7054 134.297C62.8304 132.639 61.6115 131.144 59.9471 131.019C58.2912 130.864 56.8123 132.117 56.6563 133.767L48.0457 233.753C18.8158 260.575 1.39563 279.255 0.811 279.924C-0.332687 281.169 -0.261021 283.08 0.98976 284.219C1.22583 284.45 1.50978 284.627 1.77994 284.735C2.9364 285.251 4.36783 285.013 5.27147 284.033C5.84758 283.395 23.0841 264.897 52.0121 238.324L148.304 261.369C149.932 261.749 151.576 260.74 151.988 259.128C152.37 257.507 151.365 255.838 149.738 255.458L57.4431 233.376C66.823 224.867 77.3031 215.631 88.7278 205.99L190.573 240.643C192.157 241.176 193.892 240.325 194.428 238.747C194.964 237.168 194.1 235.472 192.524 234.907L94.1268 201.399C101.4 195.331 109.011 189.123 116.943 182.838L216.733 222.036C218.292 222.663 220.071 221.89 220.669 220.328C221.298 218.776 220.469 216.956 218.955 216.408L122.438 178.505C130.717 172.049 139.318 165.516 148.214 158.997L257.433 203.368C258.992 203.994 260.763 203.252 261.392 201.7C262.021 200.147 261.27 198.282 259.717 197.757L153.97 154.803C163.419 147.971 173.195 141.162 183.202 134.484L286.349 178.649C287.899 179.307 289.692 178.604 290.352 177.06C291.003 175.546 290.32 173.8 288.809 173.12C288.778 173.112 288.778 173.112 288.747 173.103L189.264 130.506C198.5 124.445 207.967 118.514 217.625 112.735L305.661 152.759C307.203 153.447 308.988 152.775 309.701 151.278C310.392 149.742 309.717 147.965 308.215 147.255L223.994 108.973C233.167 103.625 242.468 98.412 251.936 93.4432L319.054 137.321C319.192 137.425 319.339 137.498 319.462 137.532C320.796 138.13 322.442 137.719 323.259 136.45C324.181 135.043 323.796 133.18 322.384 132.262L258.081 90.2508C267.159 85.6065 276.349 81.1589 285.603 76.9611L342.139 117.307C342.308 117.42 342.477 117.533 342.654 117.614C343.957 118.204 345.532 117.806 346.394 116.616C347.369 115.258 347.064 113.349 345.7 112.378L292.052 74.1173C302.428 69.5966 312.882 65.396 323.38 61.6387L365.381 92.6262C365.55 92.7388 365.75 92.8599 365.927 92.9417C367.199 93.5225 368.766 93.1557 369.619 91.9963C370.625 90.6464 370.351 88.7466 368.995 87.7448L330.34 59.2337C340.269 55.8509 350.267 52.8191 360.278 50.222L390.611 75.4568C390.825 75.6481 391.056 75.7777 391.295 75.8764C392.505 76.4403 393.993 76.1182 394.883 75.0682C395.973 73.7747 395.8 71.8695 394.493 70.8144L367.575 48.4072C384.115 44.4815 400.707 41.6977 417.255 40.3951C418.855 40.2698 420.129 38.7944 419.989 37.1305Z" fill="#4B665F" fill-opacity="0.3"/>
</svg>
