<svg width="202" height="36" viewBox="0 0 202 36" fill="none" xmlns="http://www.w3.org/2000/svg">
<path d="M15.9082 21.6467C17.6693 18.2975 22.8146 11.0743 29.8778 13.1329" stroke="#2DA884" stroke-width="2.55775"/>
<circle cx="16" cy="16" r="14.7211" stroke="#2DA884" stroke-width="2.55775"/>
<path d="M16.0811 2.30603V35.8262" stroke="#2DA884" stroke-width="2.55775"/>
<path d="M40.557 26.6V25.4736C41.1202 25.4565 41.5213 25.3456 41.7602 25.1408C42.0162 24.9189 42.1783 24.6032 42.2466 24.1936C42.3149 23.784 42.349 23.2634 42.349 22.632V11.9824C42.349 11.1973 42.3746 10.5317 42.4258 9.98557C42.1357 10.0026 41.8199 10.0197 41.4786 10.0368C41.1373 10.0538 40.8301 10.0709 40.557 10.088V8.67997H46.8546V9.80637C46.3085 9.82344 45.9074 9.94291 45.6514 10.1648C45.3954 10.3696 45.2333 10.6768 45.165 11.0864C45.0967 11.496 45.0626 12.0165 45.0626 12.648V23.2464C45.0626 23.7072 45.0541 24.1168 45.037 24.4752C45.037 24.8165 45.0199 25.0981 44.9858 25.32L49.3122 25.2688C50.3703 25.2517 51.181 24.9104 51.7442 24.2448C52.3074 23.5621 52.589 22.4869 52.589 21.0192H53.741L53.5874 26.6H40.557ZM62.853 26.6C62.8189 26.3269 62.7933 26.088 62.7762 25.8832C62.7591 25.6784 62.7335 25.465 62.6994 25.2432C61.5218 26.4208 60.2077 27.0096 58.757 27.0096C57.5282 27.0096 56.5981 26.7109 55.9666 26.1136C55.3522 25.4992 55.045 24.7397 55.045 23.8352C55.045 23.0501 55.2754 22.3674 55.7362 21.7872C56.197 21.2069 56.8029 20.7376 57.5538 20.3792C58.3047 20.0037 59.1239 19.7306 60.0114 19.56C60.8989 19.3722 61.7693 19.2784 62.6226 19.2784V17.768C62.6226 17.2218 62.5714 16.7184 62.469 16.2576C62.3666 15.7797 62.1533 15.3957 61.829 15.1056C61.5047 14.7984 61.0183 14.6448 60.3698 14.6448C59.9261 14.6277 59.4823 14.713 59.0386 14.9008C58.5949 15.0714 58.2535 15.3616 58.0146 15.7712C58.1511 15.9077 58.2365 16.0698 58.2706 16.2576C58.3218 16.4282 58.3474 16.5904 58.3474 16.744C58.3474 16.9829 58.245 17.256 58.0402 17.5632C57.8354 17.8533 57.4855 17.9898 56.9906 17.9728C56.581 17.9728 56.2653 17.8362 56.0434 17.5632C55.8386 17.273 55.7362 16.9402 55.7362 16.5648C55.7362 15.9504 55.9581 15.4042 56.4018 14.9264C56.8626 14.4485 57.477 14.073 58.245 13.8C59.0301 13.5269 59.9175 13.3904 60.9074 13.3904C62.3751 13.3904 63.4674 13.7744 64.1842 14.5424C64.9181 15.3104 65.285 16.5221 65.285 18.1776C65.285 19.1162 65.2765 19.9952 65.2594 20.8144C65.2594 21.6165 65.2594 22.4869 65.2594 23.4256C65.2594 23.6816 65.2509 23.9717 65.2338 24.296C65.2167 24.6202 65.1911 24.9616 65.157 25.32C65.4471 25.3029 65.7458 25.2858 66.053 25.2688C66.3602 25.2517 66.6503 25.2432 66.9234 25.2432V26.6H62.853ZM62.6226 20.456C61.8887 20.4901 61.1463 20.6181 60.3954 20.84C59.6615 21.0448 59.0471 21.369 58.5522 21.8128C58.0743 22.2394 57.8439 22.8026 57.861 23.5024C57.8951 24.0826 58.0914 24.5093 58.4498 24.7824C58.8082 25.0554 59.2178 25.192 59.6786 25.192C60.2759 25.192 60.805 25.081 61.2658 24.8592C61.7266 24.6202 62.1789 24.296 62.6226 23.8864C62.6055 23.6986 62.597 23.5109 62.597 23.3232C62.597 23.1184 62.597 22.905 62.597 22.6832C62.597 22.5296 62.597 22.248 62.597 21.8384C62.6141 21.4288 62.6226 20.968 62.6226 20.456ZM68.176 26.6V25.5248C68.688 25.5248 69.0464 25.4053 69.2512 25.1664C69.456 24.9274 69.5755 24.5946 69.6096 24.168C69.6608 23.7413 69.6864 23.2464 69.6864 22.6832L69.712 17.3584C69.712 17.0853 69.712 16.7952 69.712 16.488C69.7291 16.1808 69.7632 15.865 69.8144 15.5408C69.5072 15.5408 69.1915 15.5578 68.8672 15.592C68.5429 15.609 68.2528 15.6176 67.9968 15.6176V14.2608C68.7648 14.2608 69.3621 14.2266 69.7888 14.1584C70.2325 14.0901 70.5653 14.0048 70.7872 13.9024C71.0261 13.7829 71.2053 13.6634 71.3248 13.544H72.2464C72.2805 13.7829 72.2976 14.0048 72.2976 14.2096C72.2976 14.3973 72.3147 14.6618 72.3488 15.0032C72.8949 14.5594 73.5349 14.184 74.2688 13.8768C75.0027 13.5525 75.7024 13.3904 76.368 13.3904C77.8869 13.3904 78.9792 13.8512 79.6448 14.7728C80.3275 15.6944 80.6688 17.1365 80.6688 19.0992V23.4256C80.6688 23.7328 80.6603 24.0485 80.6432 24.3728C80.6261 24.68 80.6005 24.9957 80.5664 25.32C80.8395 25.3029 81.1125 25.2944 81.3856 25.2944C81.6757 25.2773 81.9403 25.2602 82.1792 25.2432V26.6H76.4704V25.5248C76.9824 25.5248 77.3408 25.4053 77.5456 25.1664C77.7504 24.9274 77.8699 24.5946 77.904 24.168C77.9552 23.7413 77.9808 23.2464 77.9808 22.6832V19.0992C77.9637 17.7509 77.7504 16.7354 77.3408 16.0528C76.9312 15.3701 76.2571 15.0373 75.3184 15.0544C74.7723 15.0544 74.2261 15.1909 73.68 15.464C73.1509 15.737 72.7157 16.0698 72.3744 16.4624C72.3744 16.6501 72.3744 16.8464 72.3744 17.0512C72.3744 17.2389 72.3744 17.4266 72.3744 17.6144V23.4256C72.3744 23.7328 72.3659 24.0485 72.3488 24.3728C72.3317 24.68 72.3061 24.9957 72.272 25.32C72.528 25.3029 72.8011 25.2944 73.0912 25.2944C73.3813 25.2773 73.6459 25.2602 73.8848 25.2432V26.6H68.176ZM88.8752 27.0096C87.8341 27.0096 86.904 26.745 86.0848 26.216C85.2827 25.6869 84.6427 24.9445 84.1648 23.9888C83.704 23.016 83.4736 21.8725 83.4736 20.5584C83.4736 19.1589 83.7467 17.9216 84.2928 16.8464C84.856 15.7712 85.624 14.9264 86.5968 14.312C87.5696 13.6976 88.696 13.3904 89.976 13.3904C90.5051 13.3904 91.0085 13.4586 91.4864 13.5952C91.9813 13.7146 92.3909 13.8597 92.7152 14.0304V11.112C92.7152 10.856 92.7152 10.5744 92.7152 10.2672C92.7323 9.95997 92.7664 9.62717 92.8176 9.26877C92.5104 9.28584 92.1947 9.30291 91.8704 9.31998C91.5461 9.33704 91.256 9.34557 91 9.34557V7.98877C92.1435 7.98877 92.9541 7.91197 93.432 7.75837C93.9099 7.60477 94.2427 7.44264 94.4304 7.27197H95.3776V23.4256C95.3776 23.6816 95.3691 23.9717 95.352 24.296C95.3349 24.6202 95.3093 24.9616 95.2752 25.32C95.5824 25.3029 95.8896 25.2858 96.1968 25.2688C96.504 25.2517 96.7856 25.2432 97.0416 25.2432V26.6H92.9712C92.9371 26.361 92.9029 26.1392 92.8688 25.9344C92.8517 25.7296 92.8347 25.5248 92.8176 25.32C91.7595 26.4464 90.4453 27.0096 88.8752 27.0096ZM89.9248 25.3968C90.4539 25.3968 90.9659 25.2517 91.4608 24.9616C91.9728 24.6714 92.3909 24.3045 92.7152 23.8608C92.7152 23.6389 92.7152 23.4085 92.7152 23.1696C92.7152 22.9306 92.7152 22.6746 92.7152 22.4016V15.4384C92.0325 14.9434 91.2048 14.696 90.232 14.696C89.3957 14.696 88.696 14.9434 88.1328 15.4384C87.5696 15.9162 87.1429 16.5818 86.8528 17.4352C86.5797 18.2714 86.4517 19.2186 86.4688 20.2768C86.5029 21.2154 86.648 22.0773 86.904 22.8624C87.16 23.6304 87.5355 24.2448 88.0304 24.7056C88.5424 25.1664 89.1739 25.3968 89.9248 25.3968ZM103.904 27.0096C103.085 27.0096 102.334 26.8986 101.651 26.6768C100.985 26.472 100.448 26.2245 100.038 25.9344L100.115 26.7792H98.7582L98.6302 22.376H99.7054C99.7395 23.0245 99.9358 23.6048 100.294 24.1168C100.653 24.6117 101.113 25.0042 101.677 25.2944C102.257 25.5845 102.88 25.7296 103.545 25.7296C103.938 25.7296 104.322 25.6698 104.697 25.5504C105.073 25.4138 105.389 25.2176 105.645 24.9616C105.901 24.6885 106.029 24.3557 106.029 23.9632C106.012 23.3146 105.713 22.8282 105.133 22.504C104.569 22.1626 103.861 21.8213 103.008 21.48C102.325 21.224 101.642 20.9338 100.96 20.6096C100.277 20.2853 99.7054 19.8672 99.2446 19.3552C98.8009 18.8261 98.579 18.1178 98.579 17.2304C98.579 16.7013 98.7155 16.1381 98.9886 15.5408C99.2617 14.9434 99.731 14.44 100.397 14.0304C101.062 13.6037 101.958 13.3904 103.085 13.3904C103.545 13.3904 104.066 13.4672 104.646 13.6208C105.226 13.7744 105.756 14.0389 106.233 14.4144L106.208 13.5184H107.565V18.024H106.464C106.413 17.4266 106.25 16.872 105.977 16.36C105.721 15.848 105.354 15.4298 104.877 15.1056C104.399 14.7813 103.818 14.6192 103.136 14.6192C102.453 14.6192 101.907 14.7898 101.497 15.1312C101.088 15.4554 100.883 15.865 100.883 16.36C100.883 16.8549 101.037 17.256 101.344 17.5632C101.668 17.8704 102.086 18.1349 102.598 18.3568C103.11 18.5786 103.665 18.8005 104.262 19.0224C104.979 19.3125 105.653 19.6282 106.285 19.9696C106.916 20.3109 107.428 20.7376 107.821 21.2496C108.213 21.7616 108.409 22.4101 108.409 23.1952C108.409 24.0656 108.188 24.7824 107.744 25.3456C107.317 25.9088 106.754 26.3269 106.054 26.6C105.372 26.873 104.655 27.0096 103.904 27.0096ZM116.246 27.0096C115.102 27.0096 114.053 26.7536 113.097 26.2416C112.141 25.7125 111.373 24.9616 110.793 23.9888C110.23 23.016 109.948 21.8384 109.948 20.456C109.948 19.5344 110.102 18.6554 110.409 17.8192C110.733 16.9658 111.194 16.2064 111.791 15.5408C112.389 14.8752 113.088 14.3546 113.89 13.9792C114.71 13.5866 115.614 13.3904 116.604 13.3904C117.611 13.3904 118.464 13.544 119.164 13.8512C119.881 14.1584 120.435 14.5594 120.828 15.0544C121.221 15.5493 121.417 16.0869 121.417 16.6672C121.417 17.0768 121.297 17.4352 121.058 17.7424C120.819 18.0496 120.478 18.2032 120.034 18.2032C119.522 18.2202 119.164 18.0752 118.959 17.768C118.771 17.4437 118.678 17.145 118.678 16.872C118.678 16.7184 118.703 16.5477 118.754 16.36C118.806 16.1722 118.899 15.993 119.036 15.8224C118.899 15.464 118.678 15.1994 118.37 15.0288C118.063 14.8581 117.747 14.7472 117.423 14.696C117.099 14.6448 116.826 14.6192 116.604 14.6192C115.563 14.6362 114.684 15.0885 113.967 15.976C113.267 16.8464 112.918 18.1093 112.918 19.7648C112.918 20.8229 113.071 21.7701 113.378 22.6064C113.703 23.4426 114.163 24.1082 114.761 24.6032C115.375 25.0981 116.118 25.3541 116.988 25.3712C117.756 25.3712 118.498 25.1749 119.215 24.7824C119.932 24.3728 120.512 23.8608 120.956 23.2464L121.775 23.9632C121.024 25.0896 120.137 25.8832 119.113 26.344C118.106 26.7877 117.15 27.0096 116.246 27.0096ZM130.678 26.6C130.644 26.3269 130.618 26.088 130.601 25.8832C130.584 25.6784 130.559 25.465 130.524 25.2432C129.347 26.4208 128.033 27.0096 126.582 27.0096C125.353 27.0096 124.423 26.7109 123.792 26.1136C123.177 25.4992 122.87 24.7397 122.87 23.8352C122.87 23.0501 123.1 22.3674 123.561 21.7872C124.022 21.2069 124.628 20.7376 125.379 20.3792C126.13 20.0037 126.949 19.7306 127.836 19.56C128.724 19.3722 129.594 19.2784 130.448 19.2784V17.768C130.448 17.2218 130.396 16.7184 130.294 16.2576C130.192 15.7797 129.978 15.3957 129.654 15.1056C129.33 14.7984 128.843 14.6448 128.195 14.6448C127.751 14.6277 127.307 14.713 126.864 14.9008C126.42 15.0714 126.079 15.3616 125.84 15.7712C125.976 15.9077 126.061 16.0698 126.096 16.2576C126.147 16.4282 126.172 16.5904 126.172 16.744C126.172 16.9829 126.07 17.256 125.865 17.5632C125.66 17.8533 125.311 17.9898 124.816 17.9728C124.406 17.9728 124.09 17.8362 123.868 17.5632C123.664 17.273 123.561 16.9402 123.561 16.5648C123.561 15.9504 123.783 15.4042 124.227 14.9264C124.688 14.4485 125.302 14.073 126.07 13.8C126.855 13.5269 127.743 13.3904 128.732 13.3904C130.2 13.3904 131.292 13.7744 132.009 14.5424C132.743 15.3104 133.11 16.5221 133.11 18.1776C133.11 19.1162 133.101 19.9952 133.084 20.8144C133.084 21.6165 133.084 22.4869 133.084 23.4256C133.084 23.6816 133.076 23.9717 133.059 24.296C133.042 24.6202 133.016 24.9616 132.982 25.32C133.272 25.3029 133.571 25.2858 133.878 25.2688C134.185 25.2517 134.475 25.2432 134.748 25.2432V26.6H130.678ZM130.448 20.456C129.714 20.4901 128.971 20.6181 128.22 20.84C127.487 21.0448 126.872 21.369 126.377 21.8128C125.899 22.2394 125.669 22.8026 125.686 23.5024C125.72 24.0826 125.916 24.5093 126.275 24.7824C126.633 25.0554 127.043 25.192 127.504 25.192C128.101 25.192 128.63 25.081 129.091 24.8592C129.552 24.6202 130.004 24.296 130.448 23.8864C130.431 23.6986 130.422 23.5109 130.422 23.3232C130.422 23.1184 130.422 22.905 130.422 22.6832C130.422 22.5296 130.422 22.248 130.422 21.8384C130.439 21.4288 130.448 20.968 130.448 20.456ZM135.771 33.128V32.0528C136.266 32.0528 136.615 31.9333 136.82 31.6944C137.042 31.4554 137.17 31.1226 137.204 30.696C137.255 30.2693 137.281 29.7744 137.281 29.2112L137.307 17.3584C137.307 17.0853 137.315 16.7952 137.332 16.488C137.349 16.1808 137.375 15.865 137.409 15.5408C137.119 15.5408 136.812 15.5578 136.487 15.592C136.163 15.609 135.864 15.6176 135.591 15.6176V14.2608C136.359 14.2608 136.965 14.2266 137.409 14.1584C137.853 14.0901 138.186 14.0048 138.407 13.9024C138.629 13.7829 138.8 13.6634 138.919 13.544H139.841C139.858 13.7146 139.875 13.9194 139.892 14.1584C139.926 14.3973 139.943 14.6362 139.943 14.8752C140.49 14.3973 141.095 14.0304 141.761 13.7744C142.427 13.5184 143.092 13.3904 143.758 13.3904C144.748 13.3904 145.661 13.6549 146.497 14.184C147.333 14.696 147.999 15.4298 148.494 16.3856C148.989 17.3413 149.236 18.4762 149.236 19.7904C149.236 21.2069 148.946 22.4613 148.366 23.5536C147.786 24.6458 147 25.4992 146.011 26.1136C145.038 26.7109 143.954 27.0096 142.759 27.0096C142.213 27.0096 141.71 26.9413 141.249 26.8048C140.788 26.6853 140.353 26.5146 139.943 26.2928V29.9536C139.943 30.2608 139.935 30.568 139.918 30.8752C139.918 31.1994 139.901 31.5237 139.867 31.848C140.123 31.8309 140.396 31.8138 140.686 31.7968C140.976 31.7968 141.24 31.7882 141.479 31.7712V33.128H135.771ZM142.58 25.6784C143.382 25.6784 144.048 25.4394 144.577 24.9616C145.123 24.4666 145.533 23.8096 145.806 22.9904C146.079 22.1541 146.215 21.2154 146.215 20.1744C146.215 19.304 146.096 18.4762 145.857 17.6912C145.618 16.889 145.234 16.2405 144.705 15.7456C144.193 15.2336 143.519 14.9861 142.683 15.0032C142.136 15.0032 141.624 15.1312 141.147 15.3872C140.669 15.6432 140.276 15.9589 139.969 16.3344C139.969 16.6074 139.969 16.9232 139.969 17.2816C139.986 17.6229 139.995 18.0837 139.995 18.664C139.995 19.2442 139.986 20.0293 139.969 21.0192C139.969 22.009 139.969 23.289 139.969 24.8592C140.31 25.1152 140.703 25.32 141.147 25.4736C141.607 25.6272 142.085 25.6954 142.58 25.6784ZM157.045 27.0096C155.85 27.0096 154.775 26.7365 153.819 26.1904C152.881 25.6272 152.138 24.8421 151.592 23.8352C151.046 22.8112 150.773 21.608 150.773 20.2256C150.773 19.0309 151.038 17.913 151.567 16.872C152.113 15.8309 152.864 14.9946 153.819 14.3632C154.792 13.7146 155.927 13.3904 157.224 13.3904C158.163 13.3904 159.042 13.5952 159.861 14.0048C160.68 14.3973 161.337 15.0288 161.832 15.8992C162.344 16.7525 162.6 17.8789 162.6 19.2784L153.794 19.432C153.794 20.6096 153.922 21.6506 154.178 22.5552C154.451 23.4426 154.886 24.1338 155.483 24.6288C156.081 25.1237 156.857 25.3712 157.813 25.3712C158.513 25.3712 159.255 25.192 160.04 24.8336C160.825 24.4581 161.465 23.9546 161.96 23.3232L162.754 24.0144C162.225 24.7824 161.627 25.3882 160.962 25.832C160.313 26.2586 159.639 26.5573 158.939 26.728C158.257 26.9157 157.625 27.0096 157.045 27.0096ZM153.896 18.1008H159.81C159.81 17.145 159.605 16.3344 159.195 15.6688C158.786 14.9861 158.146 14.6448 157.275 14.6448C156.354 14.6448 155.603 14.9349 155.023 15.5152C154.459 16.0784 154.084 16.9402 153.896 18.1008ZM164.351 25.5248C164.863 25.5248 165.221 25.4053 165.426 25.1664C165.631 24.9274 165.75 24.5946 165.785 24.168C165.836 23.7413 165.861 23.2464 165.861 22.6832V17.3584C165.861 17.0853 165.861 16.7952 165.861 16.488C165.878 16.1808 165.913 15.865 165.964 15.5408C165.674 15.5408 165.366 15.5493 165.042 15.5664C164.718 15.5834 164.419 15.6005 164.146 15.6176V14.2608H165.017C165.733 14.2608 166.271 14.184 166.629 14.0304C167.005 13.8768 167.286 13.7146 167.474 13.544H168.396C168.43 13.7829 168.456 14.1157 168.473 14.5424C168.49 14.969 168.507 15.4469 168.524 15.976C169.002 15.2762 169.599 14.6704 170.316 14.1584C171.033 13.6464 171.801 13.3904 172.62 13.3904C173.149 13.3904 173.601 13.5354 173.977 13.8256C174.369 14.0986 174.565 14.5509 174.565 15.1824C174.565 15.4554 174.454 15.7626 174.233 16.104C174.011 16.4453 173.635 16.6074 173.106 16.5904C172.748 16.5733 172.432 16.4368 172.159 16.1808C171.903 15.9248 171.784 15.5749 171.801 15.1312C171.391 15.1312 170.981 15.2592 170.572 15.5152C170.162 15.7541 169.778 16.0784 169.42 16.488C169.061 16.8976 168.771 17.3413 168.549 17.8192V23.4256C168.549 23.7328 168.541 24.0485 168.524 24.3728C168.524 24.68 168.498 24.9957 168.447 25.32C168.72 25.3029 169.002 25.2944 169.292 25.2944C169.582 25.2773 169.846 25.2602 170.085 25.2432V26.6H164.351V25.5248ZM181.187 26.6V25.4736C181.887 25.32 182.476 25.0042 182.954 24.5264C183.449 24.0314 183.986 23.3573 184.566 22.504L187.792 18.024C186.768 16.6245 185.915 15.4725 185.232 14.568C184.566 13.6634 183.995 12.8869 183.517 12.2384C183.21 11.7946 182.962 11.4021 182.774 11.0608C182.604 10.7194 182.45 10.3781 182.314 10.0368C182.058 10.0368 181.819 10.0453 181.597 10.0624C181.375 10.0624 181.162 10.0709 180.957 10.088V8.67997H187.971V9.80637L187.126 9.83197C186.529 9.84904 186.154 9.95997 186 10.1648C185.846 10.3525 185.829 10.5914 185.949 10.8816C186.068 11.1717 186.239 11.4789 186.461 11.8032C186.785 12.3152 187.195 12.921 187.69 13.6208C188.202 14.3034 188.748 15.0373 189.328 15.8224L191.606 12.5456C192.016 11.9824 192.391 11.4789 192.733 11.0352C193.074 10.5744 193.373 10.2245 193.629 9.98557C193.305 10.0026 192.955 10.0197 192.579 10.0368C192.204 10.0538 191.862 10.0709 191.555 10.088V8.67997H196.854V9.80637C196.121 9.90877 195.438 10.2842 194.806 10.9328C194.175 11.5813 193.569 12.3152 192.989 13.1344L190.224 17C191.111 18.1605 191.965 19.2784 192.784 20.3536C193.62 21.4288 194.303 22.3162 194.832 23.016C195.139 23.3914 195.429 23.7669 195.702 24.1424C195.975 24.5178 196.231 24.8848 196.47 25.2432C196.726 25.2261 196.957 25.2176 197.162 25.2176C197.366 25.2005 197.58 25.192 197.802 25.192V26.6H191.069V25.4736C191.717 25.4906 192.144 25.4138 192.349 25.2432C192.554 25.0554 192.613 24.8165 192.528 24.5264C192.443 24.2362 192.289 23.9461 192.067 23.656C191.658 23.1098 191.154 22.4698 190.557 21.736C189.977 20.985 189.354 20.1488 188.688 19.2272C188.278 19.8074 187.869 20.3962 187.459 20.9936C187.05 21.5909 186.649 22.1882 186.256 22.7856C185.932 23.2464 185.625 23.6816 185.334 24.0912C185.044 24.5008 184.729 24.9018 184.387 25.2944C184.711 25.2773 185.053 25.2602 185.411 25.2432C185.77 25.2261 186.102 25.209 186.41 25.192V26.6H181.187Z" fill="#142B25"/>
</svg>
